<?xml version="1.0" encoding="utf-8" ?>
<svg baseProfile="full" height="100%" version="1.1" width="100%" xmlns="http://www.w3.org/2000/svg" xmlns:ev="http://www.w3.org/2001/xml-events" xmlns:xlink="http://www.w3.org/1999/xlink"><defs /><line stroke="black" x1="190.04194883987478" x2="190.0100876125884" y1="175.21578758383183" y2="175.3817975693879" /><line stroke="black" x1="190.0100876125884" x2="190.11693428337676" y1="175.3817975693879" y2="174.82549421039403" /><line stroke="black" x1="190.11693428337676" x2="190.26921201251855" y1="174.82549421039403" y2="174.03265142365606" /><line stroke="black" x1="190.26921201251855" x2="190.37995339245765" y1="174.03265142365606" y2="173.45607003665353" /><line stroke="black" x1="190.37995339245765" x2="190.63906298025435" y1="173.45607003665353" y2="172.10700101114926" /><line stroke="black" x1="190.63906298025435" x2="190.79982874357881" y1="172.10700101114926" y2="171.26996478448237" /><line stroke="black" x1="190.79982874357881" x2="191.00308662093005" y1="171.26996478448237" y2="170.21169091335338" /><line stroke="black" x1="191.00308662093005" x2="191.5739312582999" y1="170.21169091335338" y2="167.23955535789455" /><line stroke="black" x1="191.5739312582999" x2="191.82924255719044" y1="167.23955535789455" y2="165.91026234282955" /><line stroke="black" x1="191.82924255719044" x2="192.14326288347024" y1="165.91026234282955" y2="164.27529738778813" /><line stroke="black" x1="192.14326288347024" x2="192.3498424277556" y1="164.27529738778813" y2="163.19972906602948" /><line stroke="black" x1="192.3498424277556" x2="192.92813510882166" y1="163.19972906602948" y2="160.18881484114138" /><line stroke="black" x1="192.92813510882166" x2="193.24512627649642" y1="160.18881484114138" y2="158.53838202889023" /><line stroke="black" x1="193.24512627649642" x2="194.04516241541072" y1="158.53838202889023" y2="154.37294769096792" /><line stroke="black" x1="194.04516241541072" x2="194.65235962021654" y1="154.37294769096792" y2="151.21154039476636" /><line stroke="black" x1="194.65235962021654" x2="195.1713944525634" y1="151.21154039476636" y2="148.5091555797889" /><line stroke="black" x1="195.1713944525634" x2="195.43779825925975" y1="148.5091555797889" y2="147.1221087825378" /><line stroke="black" x1="195.43779825925975" x2="195.53889812630572" y1="147.1221087825378" y2="145.05948009880532" /><line stroke="black" x1="195.53889812630572" x2="195.65488231893636" y1="145.05948009880532" y2="143.0286213068782" /><line stroke="black" x1="195.65488231893636" x2="195.77719833821567" y1="143.0286213068782" y2="138.93467114113025" /><line stroke="black" x1="195.77719833821567" x2="195.60376184689574" y1="138.93467114113025" y2="134.4381619647653" /><line stroke="black" x1="195.60376184689574" x2="195.13130187552753" y1="134.4381619647653" y2="129.3984330548621" /><line stroke="black" x1="195.13130187552753" x2="194.49304201327112" y1="129.3984330548621" y2="126.13799399121116" /><line stroke="black" x1="194.49304201327112" x2="193.88196942377567" y1="126.13799399121116" y2="122.43534114606966" /><line stroke="black" x1="193.88196942377567" x2="192.89874473064629" y1="122.43534114606966" y2="119.54509085711918" /><line stroke="black" x1="192.89874473064629" x2="191.88604543301182" y1="119.54509085711918" y2="117.01571212674648" /><line stroke="black" x1="191.88604543301182" x2="190.81471406695417" y1="117.01571212674648" y2="114.76516275925502" /><line stroke="black" x1="190.81471406695417" x2="189.40157717872233" y1="114.76516275925502" y2="112.41457679316768" /><line stroke="black" x1="189.40157717872233" x2="187.98099174109635" y1="112.41457679316768" y2="110.0516010467135" /><line stroke="black" x1="187.98099174109635" x2="186.24509936464077" y1="110.0516010467135" y2="107.6760974725939" /><line stroke="black" x1="186.24509936464077" x2="184.19127384019635" y1="107.6760974725939" y2="105.28788622125504" /><line stroke="black" x1="184.19127384019635" x2="181.31590287710992" y1="105.28788622125504" y2="102.358634111156" /><line stroke="black" x1="181.31590287710992" x2="177.68686390173667" y1="102.358634111156" y2="98.91764955648523" /><line stroke="black" x1="177.68686390173667" x2="174.71349749718212" y1="98.91764955648523" y2="95.85421097626906" /><line stroke="black" x1="174.71349749718212" x2="171.59487673874486" y1="95.85421097626906" y2="93.12473367181063" /><line stroke="black" x1="171.59487673874486" x2="168.08160074250137" y1="93.12473367181063" y2="90.30702473721803" /><line stroke="black" x1="168.08160074250137" x2="165.15740211477265" y1="90.30702473721803" y2="88.04118253922701" /><line stroke="black" x1="165.15740211477265" x2="162.21837758759483" y1="88.04118253922701" y2="85.76383534141985" /><line stroke="black" x1="162.21837758759483" x2="159.97104648737067" y1="85.76383534141985" y2="83.89405875827917" /><line stroke="black" x1="159.97104648737067" x2="157.7923076339294" y1="83.89405875827917" y2="82.73050961422855" /><line stroke="black" x1="157.7923076339294" x2="154.3407409569146" y1="82.73050961422855" y2="81.42007589694049" /><line stroke="black" x1="154.3407409569146" x2="150.79240883004715" y1="81.42007589694049" y2="80.76139263067836" /><line stroke="black" x1="150.79240883004715" x2="147.64883117743" y1="80.76139263067836" y2="80.12588027548685" /><line stroke="black" x1="147.64883117743" x2="145.59740847880659" y1="80.12588027548685" y2="80.1235664789267" /><line stroke="black" x1="145.59740847880659" x2="139.90328960970305" y1="80.1235664789267" y2="80.11714409086342" /><line stroke="black" x1="139.90328960970305" x2="138.31269563564842" y1="80.11714409086342" y2="80.11535006232498" /><line stroke="black" x1="138.31269563564842" x2="132.82534610061214" y1="80.11535006232498" y2="81.49201057214873" /><line stroke="black" x1="132.82534610061214" x2="130.29240592327324" y1="81.49201057214873" y2="82.70223458477344" /><line stroke="black" x1="130.29240592327324" x2="126.91576668798042" y1="82.70223458477344" y2="84.58336165494819" /><line stroke="black" x1="126.91576668798042" x2="122.35691063070982" y1="84.58336165494819" y2="87.05094408572651" /><line stroke="black" x1="122.35691063070982" x2="118.86629610053873" y1="87.05094408572651" y2="88.98163025925463" /><line stroke="black" x1="118.86629610053873" x2="113.71297571987002" y1="88.98163025925463" y2="92.16733997351005" /><line stroke="black" x1="113.71297571987002" x2="110.55821529875361" y1="92.16733997351005" y2="94.41329565972167" /><line stroke="black" x1="110.55821529875361" x2="107.88420808508009" y1="94.41329565972167" y2="96.25118728934872" /><line stroke="black" x1="107.88420808508009" x2="106.10012192251395" y1="96.25118728934872" y2="97.61567261574265" /><line stroke="black" x1="106.10012192251395" x2="104.63537893777995" y1="97.61567261574265" y2="98.93201908632635" /><line stroke="black" x1="104.63537893777995" x2="103.84986196124254" y1="98.93201908632635" y2="99.63791782044545" /><line stroke="black" x1="103.84986196124254" x2="103.39534411738818" y1="99.63791782044545" y2="99.85008145311018" /><line stroke="black" x1="103.39534411738818" x2="103.15943503683759" y1="99.85008145311018" y2="100.06226866675597" /></svg>