<?xml version="1.0" encoding="utf-8" ?>
<svg baseProfile="full" height="100%" version="1.1" width="100%" xmlns="http://www.w3.org/2000/svg" xmlns:ev="http://www.w3.org/2001/xml-events" xmlns:xlink="http://www.w3.org/1999/xlink"><defs /><line stroke="black" x1="-257.3185835279737" x2="-257.69088076448895" y1="321.65263132770457" y2="313.3216576795356" /><line stroke="black" x1="-257.69088076448895" x2="-255.2822041051869" y1="313.3216576795356" y2="302.77886857282726" /><line stroke="black" x1="-255.2822041051869" x2="-253.95238056151118" y1="302.77886857282726" y2="291.8258624450272" /><line stroke="black" x1="-253.95238056151118" x2="-248.50734163574674" y1="291.8258624450272" y2="271.08364653656884" /><line stroke="black" x1="-248.50734163574674" x2="-244.71199562036495" y1="271.08364653656884" y2="255.0472274078173" /><line stroke="black" x1="-244.71199562036495" x2="-240.10429574928193" y1="255.0472274078173" y2="232.2836156713626" /><line stroke="black" x1="-240.10429574928193" x2="-234.65451848419534" y1="232.2836156713626" y2="203.56761677846163" /><line stroke="black" x1="-234.65451848419534" x2="-223.74424651679013" y1="203.56761677846163" y2="163.30454514223933" /><line stroke="black" x1="-223.74424651679013" x2="-214.2792144789353" y1="163.30454514223933" y2="123.70312556098855" /><line stroke="black" x1="-214.2792144789353" x2="-208.70757830910802" y1="123.70312556098855" y2="96.20996153213325" /><line stroke="black" x1="-208.70757830910802" x2="-202.99719625781842" y1="96.20996153213325" y2="63.26842732130136" /><line stroke="black" x1="-202.99719625781842" x2="-198.16373561474242" y1="63.26842732130136" y2="34.69486690181009" /><line stroke="black" x1="-198.16373561474242" x2="-194.05787758952104" y1="34.69486690181009" y2="8.418359705260638" /><line stroke="black" x1="-194.05787758952104" x2="-192.0572647537502" y1="8.418359705260638" y2="-6.624243388755687" /><line stroke="black" x1="-192.0572647537502" x2="-189.27948386903472" y1="-6.624243388755687" y2="-19.89422690223022" /><line stroke="black" x1="-189.27948386903472" x2="-187.74839295263857" y1="-19.89422690223022" y2="-28.043553086136313" /><line stroke="black" x1="-187.74839295263857" x2="-186.8392037093786" y1="-28.043553086136313" y2="-32.94630687560422" /><line stroke="black" x1="-186.8392037093786" x2="-186.89174071644365" y1="-32.94630687560422" y2="-33.38789964173545" /><line stroke="black" x1="-186.89174071644365" x2="-186.9969076619466" y1="-33.38789964173545" y2="-34.27186629618771" /><line stroke="black" x1="-186.9969076619466" x2="-186.51725761514797" y1="-34.27186629618771" y2="-33.448810935014336" /></svg>