<?xml version="1.0" encoding="utf-8" ?>
<svg baseProfile="full" height="100%" version="1.1" width="100%" xmlns="http://www.w3.org/2000/svg" xmlns:ev="http://www.w3.org/2001/xml-events" xmlns:xlink="http://www.w3.org/1999/xlink"><defs /><line stroke="black" x1="150.0" x2="150.0" y1="-97.06069302282484" y2="-97.36131551998409" /><line stroke="black" x1="150.0" x2="150.00000000000009" y1="-97.36131551998409" y2="-97.02903066396021" /><line stroke="black" x1="150.00000000000009" x2="150.00000000000006" y1="-97.02903066396021" y2="-96.10417374149617" /><line stroke="black" x1="150.00000000000006" x2="149.99999999999997" y1="-96.10417374149617" y2="-94.14350843589264" /><line stroke="black" x1="149.99999999999997" x2="150.00000000000009" y1="-94.14350843589264" y2="-92.18079654009844" /><line stroke="black" x1="150.00000000000009" x2="149.99999999999994" y1="-92.18079654009844" y2="-88.62231645965358" /><line stroke="black" x1="149.99999999999994" x2="150.0" y1="-88.62231645965358" y2="-83.08618920212831" /><line stroke="black" x1="150.0" x2="150.00000000000006" y1="-83.08618920212831" y2="-78.2248683118807" /><line stroke="black" x1="150.00000000000006" x2="150.00000000000003" y1="-78.2248683118807" y2="-71.9050897545209" /><line stroke="black" x1="150.00000000000003" x2="150.00000000000003" y1="-71.9050897545209" y2="-67.46777012724098" /><line stroke="black" x1="150.00000000000003" x2="150.00000000000003" y1="-67.46777012724098" y2="-61.07188214793274" /><line stroke="black" x1="150.00000000000003" x2="150.00000000000003" y1="-61.07188214793274" y2="-57.38724136920865" /><line stroke="black" x1="150.00000000000003" x2="150.00000000000003" y1="-57.38724136920865" y2="-55.83962598485809" /><line stroke="black" x1="150.00000000000003" x2="150.0" y1="-55.83962598485809" y2="-54.714189532714215" /><line stroke="black" x1="150.0" x2="150.00000000000006" y1="-54.714189532714215" y2="-54.36487763884844" /><line stroke="black" x1="150.00000000000003" x2="150.0" y1="-96.75088252797525" y2="-96.45615945369306" /><line stroke="black" x1="150.0" x2="149.99999999999997" y1="-96.45615945369306" y2="-94.9980671687685" /><line stroke="black" x1="149.99999999999997" x2="150.00000000000003" y1="-94.9980671687685" y2="-92.52240619334842" /><line stroke="black" x1="150.00000000000003" x2="150.00000000000003" y1="-92.52240619334842" y2="-89.56630447146398" /><line stroke="black" x1="150.00000000000003" x2="150.00000000000003" y1="-89.56630447146398" y2="-87.62252448014607" /><line stroke="black" x1="150.00000000000003" x2="149.99999999999994" y1="-87.62252448014607" y2="-84.65084688104483" /><line stroke="black" x1="149.99999999999994" x2="149.99999999999997" y1="-84.65084688104483" y2="-82.699176220747" /><line stroke="black" x1="149.99999999999997" x2="149.99999999999997" y1="-82.699176220747" y2="-80.26717203821869" /><line stroke="black" x1="149.99999999999997" x2="149.99999999999997" y1="-80.26717203821869" y2="-78.30599541414304" /><line stroke="black" x1="149.99999999999997" x2="149.99999999999997" y1="-78.30599541414304" y2="-76.34269305420506" /><line stroke="black" x1="149.99999999999997" x2="149.99999999999997" y1="-76.34269305420506" y2="-75.67002905714676" /><line stroke="black" x1="149.99999999999997" x2="150.00000000000003" y1="-75.67002905714676" y2="-74.5898949488872" /><line stroke="black" x1="150.00000000000003" x2="150.00000000000003" y1="-74.5898949488872" y2="-72.3490606905819" /><line stroke="black" x1="150.00000000000003" x2="149.99999999999997" y1="-72.3490606905819" y2="-71.26495270453282" /><line stroke="black" x1="150.00000000000003" x2="150.00000000000009" y1="75.40331897831028" y2="75.76457236121249" /><line stroke="black" x1="150.00000000000009" x2="150.00000000000003" y1="75.76457236121249" y2="77.62561244233281" /><line stroke="black" x1="150.00000000000003" x2="150.0" y1="77.62561244233281" y2="80.49342052713229" /><line stroke="black" x1="150.0" x2="149.99999999999994" y1="80.49342052713229" y2="82.18864223097194" /><line stroke="black" x1="149.99999999999994" x2="150.00000000000003" y1="82.18864223097194" y2="83.48451445617086" /><line stroke="black" x1="150.00000000000003" x2="150.0000000000001" y1="83.48451445617086" y2="85.84330604894227" /><line stroke="black" x1="150.0000000000001" x2="150.00000000000009" y1="85.84330604894227" y2="90.52054627223933" /><line stroke="black" x1="150.00000000000009" x2="150.00000000000003" y1="90.52054627223933" y2="96.45244344964945" /><line stroke="black" x1="150.00000000000003" x2="150.00000000000003" y1="96.45244344964945" y2="103.37162987662592" /><line stroke="black" x1="150.00000000000003" x2="150.00000000000003" y1="103.37162987662592" y2="109.60636778671683" /><line stroke="black" x1="150.00000000000003" x2="150.00000000000003" y1="109.60636778671683" y2="112.66363905222545" /><line stroke="black" x1="150.00000000000003" x2="150.00000000000003" y1="112.66363905222545" y2="117.43831070455417" /><line stroke="black" x1="150.00000000000003" x2="150.00000000000006" y1="117.43831070455417" y2="120.96894860576052" /><line stroke="black" x1="150.00000000000006" x2="150.00000000000009" y1="120.96894860576052" y2="122.88909725122609" /><line stroke="black" x1="150.00000000000009" x2="149.99999999999997" y1="122.88909725122609" y2="125.10177010683543" /><line stroke="black" x1="149.99999999999997" x2="150.0" y1="125.10177010683543" y2="127.35438947801732" /><line stroke="black" x1="150.0" x2="149.99999999999997" y1="127.35438947801732" y2="128.90282936290515" /><line stroke="black" x1="149.99999999999997" x2="150.0" y1="128.90282936290515" y2="131.15731218901567" /><line stroke="black" x1="150.0" x2="150.00000000000009" y1="131.15731218901567" y2="132.43858158650752" /><line stroke="black" x1="150.00000000000009" x2="150.00000000000006" y1="132.43858158650752" y2="133.79786063722077" /><line stroke="black" x1="150.00000000000006" x2="150.0" y1="133.79786063722077" y2="134.49323909583748" /><line stroke="black" x1="150.0" x2="150.00000000000003" y1="134.49323909583748" y2="135.07560463002426" /><line stroke="black" x1="150.00000000000003" x2="150.00000000000009" y1="135.07560463002426" y2="135.01207467043434" /><line stroke="black" x1="150.00000000000009" x2="150.00000000000006" y1="135.01207467043434" y2="134.96030134013142" /><line stroke="black" x1="150.00000000000006" x2="150.00000000000006" y1="134.96030134013142" y2="134.90282165996658" /><line stroke="black" x1="150.00000000000006" x2="150.00000000000003" y1="134.90282165996658" y2="134.8522661144263" /><line stroke="black" x1="150.00000000000003" x2="150.00000000000003" y1="134.8522661144263" y2="131.36360805721054" /><line stroke="black" x1="150.00000000000003" x2="150.00000000000003" y1="131.36360805721054" y2="127.18445151059781" /><line stroke="black" x1="150.00000000000003" x2="150.00000000000003" y1="127.18445151059781" y2="122.16420058803033" /><line stroke="black" x1="150.00000000000003" x2="149.99999999999994" y1="122.16420058803033" y2="117.45661434592728" /><line stroke="black" x1="149.99999999999994" x2="150.00000000000003" y1="117.45661434592728" y2="109.98008047231417" /><line stroke="black" x1="150.00000000000003" x2="150.00000000000003" y1="109.98008047231417" y2="103.90622993530155" /><line stroke="black" x1="150.00000000000003" x2="150.00000000000006" y1="103.90622993530155" y2="96.2845121314598" /><line stroke="black" x1="150.00000000000006" x2="150.0" y1="96.2845121314598" y2="88.50672378557623" /><line stroke="black" x1="150.0" x2="149.99999999999997" y1="88.50672378557623" y2="81.08155266495478" /><line stroke="black" x1="149.99999999999997" x2="150.0" y1="81.08155266495478" y2="72.74721158534167" /><line stroke="black" x1="150.0" x2="150.00000000000003" y1="72.74721158534167" y2="64.74397959784002" /><line stroke="black" x1="150.00000000000003" x2="149.99999999999991" y1="64.74397959784002" y2="56.134986935925525" /><line stroke="black" x1="149.99999999999991" x2="150.00000000000006" y1="56.134986935925525" y2="48.52606859683961" /><line stroke="black" x1="150.00000000000006" x2="150.00000000000003" y1="48.52606859683961" y2="41.60618217466701" /><line stroke="black" x1="150.00000000000003" x2="150.00000000000006" y1="41.60618217466701" y2="34.118959857828884" /><line stroke="black" x1="150.00000000000006" x2="149.99999999999997" y1="34.118959857828884" y2="25.814688581525886" /><line stroke="black" x1="149.99999999999997" x2="149.99999999999997" y1="25.814688581525886" y2="17.56577914766075" /><line stroke="black" x1="149.99999999999997" x2="150.00000000000003" y1="17.56577914766075" y2="12.609186447035114" /><line stroke="black" x1="150.00000000000003" x2="149.99999999999997" y1="12.609186447035114" y2="4.864148890380903" /><line stroke="black" x1="149.99999999999997" x2="149.99999999999997" y1="4.864148890380903" y2="1.9727458247643028" /><line stroke="black" x1="149.99999999999997" x2="150.00000000000006" y1="1.9727458247643028" y2="0.2829631134019621" /><line stroke="black" x1="150.00000000000006" x2="150.00000000000006" y1="0.2829631134019621" y2="-0.4822321361594959" /><line stroke="black" x1="150.00000000000006" x2="149.99999999999997" y1="-0.4822321361594959" y2="-0.48186942948288447" /><line stroke="black" x1="149.99999999999994" x2="149.99999999999997" y1="-34.28012988731203" y2="-33.962466862689126" /><line stroke="black" x1="149.99999999999997" x2="149.99999999999994" y1="-33.962466862689126" y2="-32.39227076560846" /><line stroke="black" x1="149.99999999999994" x2="149.99999999999997" y1="-32.39227076560846" y2="-30.311335639364415" /><line stroke="black" x1="149.99999999999997" x2="150.0" y1="-30.311335639364415" y2="-29.955757548944803" /><line stroke="black" x1="150.0" x2="150.0" y1="-29.955757548944803" y2="-27.037164871002375" /><line stroke="black" x1="150.0" x2="150.0" y1="-27.037164871002375" y2="-23.26663282674562" /><line stroke="black" x1="150.0" x2="150.0" y1="-23.26663282674562" y2="-20.061765872189483" /><line stroke="black" x1="150.0" x2="150.00000000000003" y1="-20.061765872189483" y2="-14.232900123036273" /><line stroke="black" x1="150.00000000000003" x2="150.0" y1="-14.232900123036273" y2="-8.29291968250493" /><line stroke="black" x1="150.0" x2="150.0" y1="-8.29291968250493" y2="-1.2491619846224182" /><line stroke="black" x1="150.0" x2="150.00000000000003" y1="-1.2491619846224182" y2="4.772423438638867" /><line stroke="black" x1="150.00000000000003" x2="149.99999999999997" y1="4.772423438638867" y2="9.371859127747683" /><line stroke="black" x1="149.99999999999997" x2="149.99999999999997" y1="9.371859127747683" y2="12.688522308481225" /><line stroke="black" x1="149.99999999999997" x2="150.00000000000003" y1="12.688522308481225" y2="14.334414268271672" /><line stroke="black" x1="150.00000000000003" x2="150.00000000000006" y1="14.334414268271672" y2="15.079645583506846" /><line stroke="black" x1="150.00000000000006" x2="149.99999999999991" y1="15.079645583506846" y2="15.416940446468686" /><line stroke="black" x1="149.99999999999991" x2="149.99999999999997" y1="15.416940446468686" y2="15.763613631815389" /><line stroke="black" x1="149.99999999999997" x2="150.00000000000006" y1="15.763613631815389" y2="15.76364542238801" /><line stroke="black" x1="150.00000000000006" x2="150.0" y1="15.76364542238801" y2="15.763768199540124" /><line stroke="black" x1="150.0" x2="149.99999999999997" y1="15.763768199540124" y2="15.763934219437488" /><line stroke="black" x1="149.99999999999997" x2="150.00000000000003" y1="15.763934219437488" y2="15.764124235287" /><line stroke="black" x1="150.00000000000003" x2="150.00000000000006" y1="15.764124235287" y2="15.76431411709305" /><line stroke="black" x1="150.00000000000006" x2="150.00000000000006" y1="15.76431411709305" y2="15.764458253927359" /><line stroke="black" x1="150.00000000000006" x2="150.00000000000003" y1="15.764458253927359" y2="15.764545161470352" /><line stroke="black" x1="150.00000000000003" x2="150.0" y1="15.764545161470352" y2="15.764596445847104" /><line stroke="black" x1="150.0" x2="150.0" y1="15.764596445847104" y2="15.764619594874574" /><line stroke="black" x1="150.0" x2="150.0" y1="15.764619594874574" y2="15.764631169994317" /></svg>